# xmcd CD database file
#
# Track frame offsets:
#	150
#	10992
#	21651
#	32976
#	54952
#	69065
#	86093
#	103272
#	123747
#	132678
#	146407
#	159500
#	171371
#	186410
#	200479
#	212779
#	227117
#	242604
#	251754
#	261728
#	275918
#
# Disc length: 3864 seconds
#
# Revision: 0
# Processed by: cddbd v1.5.2PL0 Copyright (c) Steve Scherf et al.
# Submitted via: CDex 1.70beta2
#
DISCID=4f0f1615
DTITLE=Dixon, Freddy - OVCMHoF - 2000 - Backstage Pass
DYEAR=1900
DGENRE=Country
TTITLE0=Love Station
TTITLE1=Living On the Edge
TTITLE2=Blues and Me
TTITLE3=Baby I'm the One
TTITLE4=True Love
TTITLE5=Endless River
TTITLE6=God Bless America Again
TTITLE7=Soldier Denver Hayes
TTITLE8=Old Lost Love
TTITLE9=The Hawk
TTITLE10=One More Country Song
TTITLE11=Teh Last Fatal Duel
TTITLE12=Teh Kick and Push
TTITLE13=Alberta Cowboy
TTITLE14=Working Class Hero
TTITLE15=Farewell To Irelland
TTITLE16=Old Salty
TTITLE17=Common Ground
TTITLE18=Boyd Gang
TTITLE19=Black Donnellys
TTITLE20=Teh Children
EXTD=
EXTT0=
EXTT1=
EXTT2=
EXTT3=
EXTT4=
EXTT5=
EXTT6=
EXTT7=
EXTT8=
EXTT9=
EXTT10=
EXTT11=
EXTT12=
EXTT13=
EXTT14=
EXTT15=
EXTT16=
EXTT17=
EXTT18=
EXTT19=
EXTT20=
PLAYORDER=
